<svg width="141" height="31" viewBox="0 0 141 31" fill="none" xmlns="http://www.w3.org/2000/svg">
<path d="M37 17.3333C37 16.2748 37.8596 15.4167 38.92 15.4167C39.9804 15.4167 40.84 16.2748 40.84 17.3333V23.0833C40.84 24.1419 39.9804 25 38.92 25C37.8596 25 37 24.1419 37 23.0833V17.3333Z" fill="#9A99EA"/>
<path d="M38.92 19.25C37.8596 19.25 37 18.3919 37 17.3333C37 16.2748 37.8596 15.4167 38.92 15.4167L45.64 15.4167C46.7004 15.4167 47.56 16.2748 47.56 17.3333C47.56 18.3919 46.7004 19.25 45.64 19.25H38.92Z" fill="#9A99EA"/>
<path d="M39.16 5.83333C38.0996 5.83333 37.24 4.97521 37.24 3.91667C37.24 2.85812 38.0996 2 39.16 2H53.08C54.1404 2 55 2.85812 55 3.91667C55 4.97521 54.1404 5.83333 53.08 5.83333H39.16Z" fill="#9A99EA"/>
<path d="M37.7541 11.9111C37.0135 11.1535 37.0283 9.94002 37.7872 9.20068C38.5461 8.46135 39.7617 8.47613 40.5023 9.23369L46.9202 15.7985C47.6609 16.556 47.646 17.7695 46.8872 18.5088C46.1283 19.2482 44.9127 19.2334 44.1721 18.4758L37.7541 11.9111Z" fill="#9A99EA"/>
<path d="M37.621 5.33047C36.8804 4.57291 36.8952 3.35943 37.6541 2.6201C38.413 1.88076 39.6285 1.89554 40.3692 2.6531L46.7871 9.21786C47.5277 9.97543 47.5129 11.1889 46.754 11.9282C45.9952 12.6676 44.7796 12.6528 44.039 11.8952L37.621 5.33047Z" fill="#9A99EA"/>
<path d="M65.212 17.524C65.212 19.0547 64.8667 20.408 64.176 21.584C63.504 22.7413 62.5893 23.6467 61.432 24.3C60.2933 24.9533 59.0147 25.28 57.596 25.28C56.1773 25.28 54.8893 24.9533 53.732 24.3C52.5933 23.6467 51.6787 22.7413 50.988 21.584C50.316 20.408 49.98 19.0547 49.98 17.524C49.98 15.9933 50.316 14.6493 50.988 13.492C51.6787 12.316 52.5933 11.4013 53.732 10.748C54.8893 10.076 56.1773 9.74 57.596 9.74C59.0147 9.74 60.2933 10.076 61.432 10.748C62.5893 11.4013 63.504 12.316 64.176 13.492C64.8667 14.6493 65.212 15.9933 65.212 17.524ZM61.852 17.524C61.852 16.572 61.656 15.7507 61.264 15.06C60.8907 14.3507 60.3773 13.8 59.724 13.408C59.0893 13.016 58.38 12.82 57.596 12.82C56.812 12.82 56.0933 13.016 55.44 13.408C54.8053 13.8 54.292 14.3507 53.9 15.06C53.5267 15.7507 53.34 16.572 53.34 17.524C53.34 18.4573 53.5267 19.2787 53.9 19.988C54.292 20.6787 54.8053 21.22 55.44 21.612C56.0933 22.004 56.812 22.2 57.596 22.2C58.38 22.2 59.0893 22.004 59.724 21.612C60.3773 21.22 60.8907 20.6787 61.264 19.988C61.656 19.2787 61.852 18.4573 61.852 17.524Z" fill="#9A99EA"/>
<path d="M68.6992 25C68.2139 25 67.8126 24.8413 67.4952 24.524C67.1779 24.188 67.0192 23.7773 67.0192 23.292V11.728C67.0192 11.2427 67.1779 10.8413 67.4952 10.524C67.8126 10.188 68.2139 10.02 68.6992 10.02C69.1846 10.02 69.5859 10.188 69.9032 10.524C70.2206 10.8413 70.3792 11.2427 70.3792 11.728V14.36L70.1832 12.484C70.3886 12.036 70.6499 11.644 70.9672 11.308C71.3032 10.9533 71.6766 10.664 72.0872 10.44C72.4979 10.1973 72.9366 10.02 73.4032 9.908C73.8699 9.796 74.3366 9.74 74.8032 9.74C75.3632 9.74 75.8299 9.89867 76.2032 10.216C76.5952 10.5333 76.7912 10.9067 76.7912 11.336C76.7912 11.952 76.6326 12.4 76.3152 12.68C75.9979 12.9413 75.6526 13.072 75.2792 13.072C74.9246 13.072 74.5979 13.0067 74.2992 12.876C74.0192 12.7453 73.6926 12.68 73.3192 12.68C72.9832 12.68 72.6379 12.764 72.2832 12.932C71.9472 13.0813 71.6299 13.324 71.3312 13.66C71.0512 13.996 70.8179 14.416 70.6312 14.92C70.4632 15.4053 70.3792 15.984 70.3792 16.656V23.292C70.3792 23.7773 70.2206 24.188 69.9032 24.524C69.5859 24.8413 69.1846 25 68.6992 25Z" fill="#9A99EA"/>
<path d="M86.0278 9.74C87.5212 9.74 88.6225 10.104 89.3318 10.832C90.0412 11.5413 90.5078 12.4653 90.7318 13.604L90.2558 13.352L90.4798 12.904C90.7038 12.4747 91.0492 12.0173 91.5158 11.532C91.9825 11.028 92.5425 10.608 93.1958 10.272C93.8678 9.91733 94.6145 9.74 95.4358 9.74C96.7798 9.74 97.7972 10.0293 98.4878 10.608C99.1972 11.1867 99.6825 11.9613 99.9438 12.932C100.205 13.884 100.336 14.948 100.336 16.124V23.292C100.336 23.7773 100.177 24.188 99.8598 24.524C99.5425 24.8413 99.1412 25 98.6558 25C98.1705 25 97.7692 24.8413 97.4518 24.524C97.1345 24.188 96.9758 23.7773 96.9758 23.292V16.124C96.9758 15.508 96.9012 14.9573 96.7518 14.472C96.6025 13.968 96.3318 13.5667 95.9398 13.268C95.5478 12.9693 94.9878 12.82 94.2598 12.82C93.5505 12.82 92.9438 12.9693 92.4398 13.268C91.9358 13.5667 91.5532 13.968 91.2918 14.472C91.0492 14.9573 90.9278 15.508 90.9278 16.124V23.292C90.9278 23.7773 90.7692 24.188 90.4518 24.524C90.1345 24.8413 89.7332 25 89.2478 25C88.7625 25 88.3612 24.8413 88.0438 24.524C87.7265 24.188 87.5678 23.7773 87.5678 23.292V16.124C87.5678 15.508 87.4932 14.9573 87.3438 14.472C87.1945 13.968 86.9238 13.5667 86.5318 13.268C86.1398 12.9693 85.5798 12.82 84.8518 12.82C84.1425 12.82 83.5358 12.9693 83.0318 13.268C82.5278 13.5667 82.1452 13.968 81.8838 14.472C81.6412 14.9573 81.5198 15.508 81.5198 16.124V23.292C81.5198 23.7773 81.3612 24.188 81.0438 24.524C80.7265 24.8413 80.3252 25 79.8398 25C79.3545 25 78.9532 24.8413 78.6358 24.524C78.3185 24.188 78.1598 23.7773 78.1598 23.292V11.728C78.1598 11.2427 78.3185 10.8413 78.6358 10.524C78.9532 10.188 79.3545 10.02 79.8398 10.02C80.3252 10.02 80.7265 10.188 81.0438 10.524C81.3612 10.8413 81.5198 11.2427 81.5198 11.728V12.932L81.0998 12.848C81.2678 12.5307 81.5012 12.1947 81.7998 11.84C82.0985 11.4667 82.4625 11.1213 82.8918 10.804C83.3212 10.4867 83.7972 10.2347 84.3198 10.048C84.8425 9.84267 85.4118 9.74 86.0278 9.74Z" fill="#9A99EA"/>
<path d="M110.84 9.74C112.334 9.74 113.435 10.104 114.144 10.832C114.854 11.5413 115.32 12.4653 115.544 13.604L115.068 13.352L115.292 12.904C115.516 12.4747 115.862 12.0173 116.328 11.532C116.795 11.028 117.355 10.608 118.008 10.272C118.68 9.91733 119.427 9.74 120.248 9.74C121.592 9.74 122.61 10.0293 123.3 10.608C124.01 11.1867 124.495 11.9613 124.756 12.932C125.018 13.884 125.148 14.948 125.148 16.124V23.292C125.148 23.7773 124.99 24.188 124.672 24.524C124.355 24.8413 123.954 25 123.468 25C122.983 25 122.582 24.8413 122.264 24.524C121.947 24.188 121.788 23.7773 121.788 23.292V16.124C121.788 15.508 121.714 14.9573 121.564 14.472C121.415 13.968 121.144 13.5667 120.752 13.268C120.36 12.9693 119.8 12.82 119.072 12.82C118.363 12.82 117.756 12.9693 117.252 13.268C116.748 13.5667 116.366 13.968 116.104 14.472C115.862 14.9573 115.74 15.508 115.74 16.124V23.292C115.74 23.7773 115.582 24.188 115.264 24.524C114.947 24.8413 114.546 25 114.06 25C113.575 25 113.174 24.8413 112.856 24.524C112.539 24.188 112.38 23.7773 112.38 23.292V16.124C112.38 15.508 112.306 14.9573 112.156 14.472C112.007 13.968 111.736 13.5667 111.344 13.268C110.952 12.9693 110.392 12.82 109.664 12.82C108.955 12.82 108.348 12.9693 107.844 13.268C107.34 13.5667 106.958 13.968 106.696 14.472C106.454 14.9573 106.332 15.508 106.332 16.124V23.292C106.332 23.7773 106.174 24.188 105.856 24.524C105.539 24.8413 105.138 25 104.652 25C104.167 25 103.766 24.8413 103.448 24.524C103.131 24.188 102.972 23.7773 102.972 23.292V11.728C102.972 11.2427 103.131 10.8413 103.448 10.524C103.766 10.188 104.167 10.02 104.652 10.02C105.138 10.02 105.539 10.188 105.856 10.524C106.174 10.8413 106.332 11.2427 106.332 11.728V12.932L105.912 12.848C106.08 12.5307 106.314 12.1947 106.612 11.84C106.911 11.4667 107.275 11.1213 107.704 10.804C108.134 10.4867 108.61 10.2347 109.132 10.048C109.655 9.84267 110.224 9.74 110.84 9.74Z" fill="#9A99EA"/>
<path d="M138.764 10.02C139.249 10.02 139.651 10.188 139.968 10.524C140.285 10.8413 140.444 11.2427 140.444 11.728V23.628C140.444 25.3453 140.117 26.708 139.464 27.716C138.829 28.7427 137.971 29.48 136.888 29.928C135.805 30.376 134.592 30.6 133.248 30.6C132.651 30.6 132.016 30.5533 131.344 30.46C130.672 30.3667 130.121 30.2267 129.692 30.04C129.132 29.7973 128.74 29.4893 128.516 29.116C128.311 28.7613 128.273 28.3787 128.404 27.968C128.572 27.4267 128.843 27.0533 129.216 26.848C129.589 26.6613 129.981 26.6427 130.392 26.792C130.691 26.8853 131.083 27.0253 131.568 27.212C132.053 27.4173 132.613 27.52 133.248 27.52C134.107 27.52 134.816 27.3987 135.376 27.156C135.955 26.932 136.384 26.54 136.664 25.98C136.963 25.4387 137.112 24.692 137.112 23.74V21.864L137.7 22.536C137.383 23.152 136.981 23.6653 136.496 24.076C136.029 24.468 135.469 24.7667 134.816 24.972C134.163 25.1773 133.416 25.28 132.576 25.28C131.587 25.28 130.719 25.056 129.972 24.608C129.244 24.1413 128.675 23.5067 128.264 22.704C127.853 21.8827 127.648 20.9493 127.648 19.904V11.728C127.648 11.2427 127.807 10.8413 128.124 10.524C128.441 10.188 128.843 10.02 129.328 10.02C129.813 10.02 130.215 10.188 130.532 10.524C130.849 10.8413 131.008 11.2427 131.008 11.728V18.896C131.008 20.1093 131.269 20.968 131.792 21.472C132.333 21.9573 133.08 22.2 134.032 22.2C134.685 22.2 135.236 22.0787 135.684 21.836C136.132 21.5747 136.477 21.2013 136.72 20.716C136.963 20.212 137.084 19.6053 137.084 18.896V11.728C137.084 11.2427 137.243 10.8413 137.56 10.524C137.877 10.188 138.279 10.02 138.764 10.02Z" fill="#9A99EA"/>
<path d="M22.6698 14.7625C22.6611 14.7575 22.6524 14.7527 22.6436 14.748C21.8301 14.3154 21.1142 13.7204 20.5401 12.9998C21.7068 12.7411 22.7505 12.0925 23.4992 11.1611C24.2479 10.2296 24.6569 9.07084 24.6587 7.87578C24.6587 7.64372 24.5665 7.42116 24.4024 7.25706C24.2383 7.09297 24.0158 7.00078 23.7837 7.00078C23.5516 7.00078 23.3291 7.09297 23.165 7.25706C23.0009 7.42116 22.9087 7.64372 22.9087 7.87578C22.9072 8.76307 22.569 9.61671 21.9624 10.2642C21.3557 10.9117 20.5259 11.3048 19.6406 11.364C19.5188 11.0301 19.4303 10.685 19.3763 10.3337L18.878 6.86078C18.6092 5.33719 17.7792 3.96964 16.5517 3.02791C15.3242 2.08617 13.7884 1.63864 12.2472 1.77359C10.7059 1.90854 9.27125 2.61617 8.2261 3.75689C7.18095 4.89761 6.60123 6.3886 6.60132 7.93572L6.656 11.7726C5.8245 11.6515 5.06427 11.2354 4.51402 10.6003C3.96378 9.96529 3.6602 9.15356 3.65869 8.31328C3.65869 8.08122 3.5665 7.85866 3.40241 7.69456C3.23832 7.53047 3.01576 7.43828 2.78369 7.43828C2.55163 7.43828 2.32907 7.53047 2.16497 7.69456C2.00088 7.85866 1.90869 8.08122 1.90869 8.31328C1.91046 9.62229 2.4007 10.8835 3.28345 11.8501C4.16619 12.8167 5.3779 13.419 6.68138 13.5392L6.70588 15.2656C6.72852 16.8641 7.01835 18.4475 7.56338 19.9503C9.05088 24.0375 10.9103 26.8147 12.7263 26.1532C13.2382 25.9673 13.5563 25.2979 13.7544 24.4667C13.8112 24.2339 13.9221 24.0178 14.0782 23.8361C14.2343 23.6544 14.4312 23.5122 14.6528 23.4211C14.8744 23.33 15.1143 23.2925 15.3531 23.3118C15.5919 23.3311 15.8228 23.4066 16.0268 23.5322C18.7839 24.909 21.6028 24.8193 22.5062 23.2543C22.7914 22.7276 22.8679 22.1129 22.7206 21.5323C22.6964 21.4011 22.7024 21.2661 22.7382 21.1375C22.774 21.009 22.8386 20.8903 22.9271 20.7904C23.0156 20.6906 23.1257 20.6122 23.2491 20.5612C23.3724 20.5103 23.5057 20.4881 23.6389 20.4963C24.702 20.562 25.5411 20.2894 25.9043 19.6607C26.6292 18.4051 25.1811 16.2123 22.6698 14.7625Z" fill="#9A99EA"/>
<path d="M15.4712 10.0625C16.1961 10.0625 16.7837 9.08312 16.7837 7.875C16.7837 6.66688 16.1961 5.6875 15.4712 5.6875C14.7463 5.6875 14.1587 6.66688 14.1587 7.875C14.1587 9.08312 14.7463 10.0625 15.4712 10.0625Z" fill="#373737"/>
<path d="M10.2212 10.0625C10.9461 10.0625 11.5337 9.08312 11.5337 7.875C11.5337 6.66688 10.9461 5.6875 10.2212 5.6875C9.49632 5.6875 8.90869 6.66688 8.90869 7.875C8.90869 9.08312 9.49632 10.0625 10.2212 10.0625Z" fill="#373737"/>
</svg>
