<svg width="28" height="28" viewBox="0 0 28 28" fill="none" xmlns="http://www.w3.org/2000/svg">
<path d="M20.5833 25.1664C17.8353 24.9094 3.09433 19.8454 2.91633 17.4164C2.73933 14.9874 20.7513 2.54836 23.0003 3.41636C25.2493 4.28436 24.2123 10.1234 24.5693 11.8494C24.9263 13.5764 23.3313 25.4224 20.5833 25.1664Z" fill="white"/>
<path d="M23.4997 23.0008C23.4375 23.0005 23.3759 22.9889 23.3177 22.9668L14.3237 19.4668C14.2003 19.4187 14.101 19.3235 14.0477 19.2021C13.9945 19.0808 13.9916 18.9433 14.0397 18.8198C14.0879 18.6964 14.1831 18.5971 14.3044 18.5438C14.4257 18.4906 14.5633 18.4877 14.6867 18.5358L23.0677 21.7968L24.9097 3.37281L3.72472 14.4258L10.6757 17.0328C10.7998 17.0795 10.9003 17.1736 10.9551 17.2943C11.0099 17.4151 11.0144 17.5527 10.9677 17.6768C10.921 17.8009 10.827 17.9014 10.7062 17.9562C10.5854 18.011 10.4478 18.0155 10.3237 17.9688L2.32372 14.9688C2.23382 14.9342 2.15578 14.8745 2.09889 14.7968C2.04199 14.7191 2.00866 14.6266 2.00286 14.5305C1.99707 14.4344 2.01905 14.3386 2.06619 14.2546C2.11332 14.1706 2.18363 14.1019 2.26872 14.0568L25.2687 2.05681C25.3487 2.01505 25.4384 1.9957 25.5285 2.0008C25.6186 2.00591 25.7056 2.03529 25.7803 2.08582C25.855 2.13635 25.9147 2.20616 25.953 2.28785C25.9912 2.36954 26.0067 2.46005 25.9977 2.54981L23.9977 22.5498C23.9855 22.6734 23.9278 22.7881 23.8358 22.8714C23.7437 22.9548 23.6239 23.0009 23.4997 23.0008Z" fill="black"/>
<path d="M12.0004 26.0779L11.9554 26.0759C11.8469 26.066 11.7446 26.0208 11.664 25.9474C11.5835 25.8739 11.5292 25.7761 11.5094 25.6689L10.0094 17.5919C9.99456 17.5123 9.99937 17.4302 10.0234 17.3528C10.0475 17.2755 10.09 17.2051 10.1474 17.1479L25.1474 2.14794C25.235 2.05959 25.3524 2.00708 25.4767 2.00066C25.6009 1.99425 25.7231 2.0344 25.8194 2.11327C25.9156 2.19213 25.979 2.30405 25.9971 2.42714C26.0152 2.55024 25.9868 2.67567 25.9174 2.77894L14.9534 19.2309L12.4674 25.7549C12.4315 25.8498 12.3676 25.9315 12.2842 25.9892C12.2008 26.0468 12.1018 26.0778 12.0004 26.0779ZM11.0404 17.6679L12.1674 23.7359L14.0394 18.8229C14.0526 18.7878 14.0697 18.7542 14.0904 18.7229L22.2874 6.42094L11.0404 17.6679Z" fill="black"/>
<path d="M12.0002 26.0776C11.9 26.0776 11.8021 26.0476 11.7192 25.9913C11.6363 25.935 11.5722 25.8552 11.5353 25.7621C11.4983 25.6689 11.4902 25.5669 11.5119 25.4691C11.5337 25.3713 11.5843 25.2823 11.6572 25.2136L17.3312 19.8686C17.379 19.8235 17.4352 19.7883 17.4966 19.765C17.558 19.7417 17.6234 19.7307 17.6891 19.7326C17.7547 19.7346 17.8193 19.7495 17.8792 19.7764C17.9392 19.8033 17.9932 19.8418 18.0382 19.8896C18.0833 19.9374 18.1184 19.9936 18.1418 20.055C18.1651 20.1164 18.1761 20.1818 18.1741 20.2474C18.1722 20.3131 18.1573 20.3777 18.1304 20.4376C18.1035 20.4975 18.065 20.5515 18.0172 20.5966L12.3432 25.9416C12.2504 26.029 12.1277 26.0776 12.0002 26.0776Z" fill="black"/>
</svg>
