<svg width="173" height="106" viewBox="0 0 173 106" fill="none" xmlns="http://www.w3.org/2000/svg">
<path d="M86.1411 18.5099L88.6808 38.377H79.2897C72.8201 24.3805 62.4159 16.7604 50.6215 16.7604C42.6253 16.7604 35.774 20.1342 31.0853 26.7565C26.3875 33.2536 24.1068 42.3727 24.1068 53.1206C24.1068 64.9871 26.7691 74.9833 32.2257 82.608C37.5504 90.1028 45.4012 93.602 53.4111 93.602C65.8416 93.602 75.7369 85.6059 80.1802 69.9852H89.6939V90.8546C79.6714 96.3493 66.2232 99.4726 52.5206 99.4726C38.3137 99.4726 24.6111 95.8527 14.7158 88.1027C4.82045 80.3528 0 69.3633 0 56.745C0 44.1268 4.94766 32.3766 14.2115 23.8839C23.7251 15.1361 36.5373 10.9076 51.3802 10.9076C63.3989 10.8513 75.2775 13.4506 86.1411 18.5144" fill="#002640"/>
<path d="M99.7847 105.5L141.837 0.5H173L130.947 105.5H99.7847Z" fill="#FFAB4D"/>
</svg>
