<svg width="37" height="4" viewBox="0 0 37 4" fill="none" xmlns="http://www.w3.org/2000/svg">
<path d="M18.562 3.99864C17.5786 3.99921 16.6133 3.73421 15.768 3.23164L13.282 1.75064C12.5681 1.32177 11.7478 1.10275 10.9151 1.11867C10.0824 1.13458 9.27106 1.3848 8.57404 1.84064L6.65904 3.08264C5.83397 3.61889 4.8791 3.92174 3.89579 3.95907C2.91247 3.99639 1.93739 3.76679 1.07404 3.29464C0.957612 3.23099 0.871237 3.12369 0.833917 2.99636C0.796597 2.86902 0.81139 2.73207 0.875042 2.61564C0.938694 2.49921 1.04599 2.41283 1.17333 2.37551C1.30067 2.33819 1.43761 2.35299 1.55404 2.41664C2.25901 2.80192 3.05509 2.98926 3.85789 2.95881C4.6607 2.92835 5.4403 2.68123 6.11404 2.24364L8.03004 1.00164C8.88328 0.443237 9.87668 0.136719 10.8962 0.117262C11.9158 0.0978057 12.9201 0.366198 13.794 0.891638L16.279 2.37164C16.9531 2.77193 17.7205 2.9879 18.5044 2.99791C19.2883 3.00791 20.061 2.81159 20.745 2.42864L23.688 0.775641C24.5554 0.286892 25.5401 0.0452519 26.5352 0.0769869C27.5303 0.108722 28.4976 0.412618 29.332 0.955641L31.135 2.12464C31.8505 2.5865 32.6829 2.83449 33.5345 2.83945C34.386 2.84441 35.2213 2.60614 35.942 2.15264C36.054 2.09046 36.1854 2.07347 36.3095 2.10519C36.4335 2.1369 36.5407 2.21489 36.609 2.32316C36.6774 2.43142 36.7017 2.56174 36.6769 2.68736C36.6522 2.81298 36.5803 2.92436 36.476 2.99864C35.5936 3.5538 34.5709 3.84534 33.5283 3.83896C32.4857 3.83258 31.4667 3.52855 30.591 2.96264L28.788 1.79264C28.1063 1.34928 27.3161 1.10133 26.5033 1.07577C25.6905 1.0502 24.8863 1.24799 24.178 1.64764L21.235 3.29964C20.4186 3.75764 19.4982 3.99901 18.562 3.99864Z" fill="black"/>
</svg>
