<svg xmlns="http://www.w3.org/2000/svg" fill-rule="evenodd" clip-rule="evenodd" image-rendering="optimizeQuality" shape-rendering="geometricPrecision" text-rendering="geometricPrecision" viewBox="0 0 2.333 2.333" id="Yarn">
  <path fill="#9346ed" d="M1.99292 1.9585c-0.000858268,0 -0.00172047,-3.93701e-005 -0.00259843,-0.000125984 -0.0146654,-0.00141732 -0.0253898,-0.0144449 -0.0239843,-0.0291102 0.00319685,-0.0331378 -0.0204843,-0.0604724 -0.0409016,-0.0775512 -0.0519803,-0.0434843 -0.137744,-0.0666811 -0.191051,-0.0516969 -0.0564016,0.0158228 -0.0992598,0.00991732 -0.130839,-0.00367717 -0.0309882,0.00648819 -0.0639173,0.00759449 -0.0941772,0.000681102 -0.0604055,-0.0137638 -0.0993583,-0.0567913 -0.109693,-0.121138 -0.00558661,-0.0347756 -0.0192677,-0.0597205 -0.0406102,-0.074122 -0.0344291,-0.0232362 -0.0797441,-0.013748 -0.0801929,-0.0136299 -0.0143189,0.0031811 -0.0286496,-0.00569291 -0.0319409,-0.0200551 -0.00327559,-0.0143465 0.00569685,-0.0286496 0.0200591,-0.0319409 0.00274803,-0.000625984 0.0679724,-0.0149606 0.121886,0.0214173 0.0340827,0.0229685 0.0554173,0.0599409 0.0634409,0.10987 0.00694488,0.0432323 0.0294882,0.0686063 0.0689016,0.0776102 0.00662598,0.0015 0.0134606,0.00247244 0.0204173,0.00296063 -0.00655906,-0.0085 -0.0102795,-0.0151969 -0.0115866,-0.0176811 -0.0390039,-0.0756654 -0.0036378,-0.113161 0.013374,-0.125803 0.0440669,-0.0326811 0.129067,-0.0243031 0.171626,0.0169606 0.0309685,0.0300433 0.0334567,0.0710276 0.00662205,0.109626 -0.00531496,0.00766929 -0.0125551,0.015122 -0.0212913,0.0221693 0.00623622,-0.00114173 0.0127677,-0.00265354 0.0195866,-0.00456693 0.0706378,-0.0198228 0.173665,0.00687402 0.239701,0.0621339 0.0427913,0.0357874 0.0640118,0.0796772 0.0597756,0.123583 -0.00133071,0.0137677 -0.012937,0.0240866 -0.0265236,0.0240866zm-0.380185 -0.320894c-0.0148425,0 -0.0285669,0.00309449 -0.0375276,0.00973622 -0.0134016,0.00994094 -0.0126654,0.0295866 0.00216929,0.0583622 0.00294488,0.00561024 0.0125984,0.0216102 0.0323346,0.0340984 0.031626,-0.00929134 0.0581339,-0.0247087 0.0681772,-0.0391535 0.0149724,-0.0215433 0.00840551,-0.032752 2.75591e-005,-0.0408858 -0.0145984,-0.0141732 -0.0413504,-0.0221575 -0.0651811,-0.0221575z" class="colordb5656 svgShape"></path>
  <path fill="#ffffff" d="M0.961957 1.67204c-0.357642,0 -0.64861,-0.290953 -0.64861,-0.648594 0,-0.357642 0.290969,-0.64861 0.64861,-0.64861 0.357646,0 0.648594,0.290965 0.648594,0.64861 0,0.357646 -0.290949,0.648594 -0.648594,0.648594zm0 -1.24389c-0.328228,0 -0.595276,0.267047 -0.595276,0.595276 0,0.328232 0.267047,0.595264 0.595276,0.595264 0.328232,0 0.595264,-0.267047 0.595264,-0.595264 0,-0.328224 -0.267031,-0.595276 -0.595264,-0.595276z" class="color022a32 svgShape"></path>
  <path fill="#ffffff" d="M0.961957 1.67204c-0.357642,0 -0.64861,-0.290953 -0.64861,-0.648594 0,-0.357642 0.290969,-0.64861 0.64861,-0.64861 0.357646,0 0.648594,0.290965 0.648594,0.64861 0,0.357646 -0.290949,0.648594 -0.648594,0.648594zm0 -1.24389c-0.328228,0 -0.595276,0.267047 -0.595276,0.595276 0,0.328232 0.267047,0.595264 0.595276,0.595264 0.328232,0 0.595264,-0.267047 0.595264,-0.595264 0,-0.328224 -0.267031,-0.595276 -0.595264,-0.595276z" class="color022a32 svgShape"></path>
  <path fill="#ffffff" d="M0.961957 1.67204c-0.320252,0 -0.596205,-0.238689 -0.641886,-0.555197 -0.000598425,-0.00417717 -0.000208661,-0.00844488 0.00115748,-0.0124449 0.0896929,-0.262425 0.336398,-0.43874 0.613874,-0.43874 0.320256,0 0.596197,0.238685 0.641878,0.555193 0.000598425,0.0041811 0.000208661,0.00843307 -0.00116535,0.0124488 -0.089689,0.262409 -0.336386,0.43874 -0.613858,0.43874zm-0.588154 -0.556461c0.0446811,0.287283 0.296382,0.50313 0.588154,0.50313 0.252535,0 0.477268,-0.159094 0.561295,-0.396591 -0.0446811,-0.287287 -0.296382,-0.50313 -0.588138,-0.50313 -0.252539,0 -0.47728,0.15911 -0.561311,0.396591z" class="color022a32 svgShape"></path>
  <path fill="#ffffff" d="M1.05155 1.66559c-0.00291732,0 -0.00583071,-0.000472441 -0.00862205,-0.00144488 -0.262425,-0.0896929 -0.43874,-0.336398 -0.43874,-0.613878 0,-0.320256 0.238685,-0.596209 0.555193,-0.641886 0.00417717,-0.000610236 0.00844488,-0.000192913 0.0124449,0.00115354 0.262425,0.0896969 0.43874,0.336398 0.43874,0.61389 0,0.320272 -0.238685,0.596209 -0.555193,0.641886 -0.00127559,0.000177165 -0.00255512,0.000279528 -0.00382283,0.000279528zm0.109087 -1.20348c-0.287287,0.0446811 -0.50313,0.296382 -0.50313,0.588154 0,0.252535 0.15911,0.477283 0.396591,0.561307 0.287283,-0.0446811 0.503126,-0.296382 0.503126,-0.588157 -3.93701e-006,-0.252535 -0.159098,-0.47728 -0.396587,-0.561303z" class="color022a32 svgShape"></path>
  <path fill="#ffffff" d="M0.961957 1.67204c-0.230827,0 -0.446087,-0.12426 -0.561807,-0.324299 -0.00477559,-0.00825984 -0.00477559,-0.0184291 0,-0.0267047 0.11572,-0.200012 0.330996,-0.324272 0.561807,-0.324272 0.230815,0 0.446091,0.124248 0.561795,0.324287 0.00477559,0.00825984 0.00477559,0.0184291 0,0.026689 -0.115705,0.200024 -0.330965,0.324299 -0.561795,0.324299zm-0.507665 -0.337646c0.107929,0.17576 0.301004,0.284315 0.507665,0.284315 0.206665,0 0.39974,-0.108539 0.507669,-0.284315 -0.107929,-0.17576 -0.301004,-0.284299 -0.507669,-0.284299 -0.206661,0 -0.399736,0.108539 -0.507665,0.284299z" class="color022a32 svgShape"></path>
  <path fill="#ffffff" d="M1.27292 1.58881c-0.0046063,0 -0.00922047,-0.00119685 -0.0133583,-0.00358661 -0.20002,-0.11572 -0.324287,-0.33098 -0.324287,-0.561795 0,-0.230827 0.12426,-0.446091 0.324299,-0.561807 0.00825197,-0.00477953 0.0184291,-0.00477953 0.0267087,0 0.200012,0.115717 0.324268,0.330996 0.324268,0.561807 0,0.230799 -0.124248,0.446075 -0.324268,0.561795 -0.0041378,0.00238976 -0.00874803,0.00358661 -0.0133622,0.00358661zm0 -1.07307c-0.17576,0.107933 -0.284311,0.301008 -0.284311,0.507669 0,0.20665 0.108535,0.399732 0.284311,0.507669 0.175744,-0.107929 0.284299,-0.30102 0.284299,-0.507669 0,-0.206646 -0.108539,-0.399736 -0.284299,-0.507669z" class="color022a32 svgShape"></path>
  <path fill="#ffffff" d="M0.961957 1.67204c-0.230827,0 -0.446087,-0.12426 -0.561807,-0.324299 -0.00477559,-0.00825984 -0.00477559,-0.0184291 0,-0.0267047 0.11572,-0.200012 0.330996,-0.324272 0.561807,-0.324272 0.230815,0 0.446091,0.124248 0.561795,0.324287 0.00477559,0.00825984 0.00477559,0.0184291 0,0.026689 -0.115705,0.200024 -0.330965,0.324299 -0.561795,0.324299zm-0.507665 -0.337646c0.107929,0.17576 0.301004,0.284315 0.507665,0.284315 0.206665,0 0.39974,-0.108539 0.507669,-0.284315 -0.107929,-0.17576 -0.301004,-0.284299 -0.507669,-0.284299 -0.206661,0 -0.399736,0.108539 -0.507665,0.284299z" class="color022a32 svgShape"></path>
  <path fill="#ffffff" d="M1.27292 1.58881c-0.0046063,0 -0.00922047,-0.00119685 -0.0133583,-0.00358661 -0.20002,-0.11572 -0.324287,-0.33098 -0.324287,-0.561795 0,-0.230827 0.12426,-0.446091 0.324299,-0.561807 0.00825197,-0.00477953 0.0184291,-0.00477953 0.0267087,0 0.200012,0.115717 0.324268,0.330996 0.324268,0.561807 0,0.230799 -0.124248,0.446075 -0.324268,0.561795 -0.0041378,0.00238976 -0.00874803,0.00358661 -0.0133622,0.00358661zm0 -1.07307c-0.17576,0.107933 -0.284311,0.301008 -0.284311,0.507669 0,0.20665 0.108535,0.399732 0.284311,0.507669 0.175744,-0.107929 0.284299,-0.30102 0.284299,-0.507669 0,-0.206646 -0.108539,-0.399736 -0.284299,-0.507669z" class="color022a32 svgShape"></path>
  <path fill="#ffffff" d="M0.961957 1.67204c-0.17087,0 -0.332169,-0.0659134 -0.454181,-0.185622 -0.00530709,-0.00519685 -0.00819685,-0.0123898 -0.00798425,-0.0198228 0.000220472,-0.00741732 0.00352756,-0.0144134 0.00912205,-0.019315 0.118039,-0.102972 0.269398,-0.159677 0.426185,-0.159677 0.170874,0 0.332169,0.0659134 0.454185,0.185606 0.00530709,0.00520866 0.00819291,0.0124055 0.00797244,0.0198307 -0.000220472,0.00741732 -0.00352756,0.0144173 -0.00912205,0.0193189 -0.118039,0.102972 -0.269402,0.159681 -0.426177,0.159681zm-0.395181 -0.203472c0.109067,0.0970276 0.248256,0.150134 0.395189,0.150134 0.13398,0 0.263646,-0.0451378 0.368339,-0.127634 -0.109079,-0.0970276 -0.248276,-0.150134 -0.395189,-0.150134 -0.133996,0 -0.263665,0.0451378 -0.368339,0.127634z" class="color022a32 svgShape"></path>
</svg>
